<?xml version="1.0" standalone="no"?>
<!DOCTYPE svg PUBLIC "-//W3C//DTD SVG 20010904//EN"
 "http://www.w3.org/TR/2001/REC-SVG-20010904/DTD/svg10.dtd">
<svg version="1.0" xmlns="http://www.w3.org/2000/svg"
 width="640.000000pt" height="1280.000000pt" viewBox="0 0 640.000000 1280.000000"
 preserveAspectRatio="xMidYMid meet">
<metadata>
Created by potrace 1.15, written by Peter Selinger 2001-2017
</metadata>
<g transform="translate(0.000000,1280.000000) scale(0.100000,-0.100000)"
fill="#000000" stroke="none">
<path d="M1153 12786 c-172 -54 -310 -275 -403 -646 -52 -204 -101 -537 -112
-752 l-3 -57 278 -285 c364 -374 550 -536 700 -613 27 -13 47 -27 44 -30 -10
-9 -259 126 -391 214 -207 136 -398 284 -679 526 -76 66 -140 118 -142 116 -3
-4 79 -226 473 -1274 133 -351 240 -641 238 -642 -2 -2 -27 16 -56 39 -39 31
-51 37 -47 22 3 -10 79 -329 167 -709 211 -900 391 -1670 426 -1816 25 -109
31 -123 90 -205 422 -592 1130 -1141 1690 -1309 132 -40 146 -45 99 -39 -296
44 -768 295 -1439 768 -76 53 -139 96 -141 94 -1 -2 165 -448 369 -992 l372
-989 77 -102 c277 -369 694 -723 1127 -959 194 -106 355 -172 609 -248 l43
-13 173 -430 c209 -523 256 -636 395 -959 360 -837 603 -1301 755 -1445 50
-48 95 -66 95 -39 0 42 -487 1366 -1024 2787 -36 96 -66 177 -66 181 0 4 30
51 66 105 324 485 525 1299 484 1958 l-11 171 -203 540 c-112 298 -279 742
-371 989 -93 246 -172 444 -175 440 -4 -5 -40 -138 -80 -298 -146 -578 -283
-972 -417 -1200 -67 -113 -77 -117 -24 -9 197 400 288 988 236 1530 l-15 159
-515 1008 c-355 696 -515 1019 -515 1041 0 17 -11 108 -25 203 -28 191 7 89
-340 1008 -81 215 -205 545 -277 735 -71 190 -134 352 -138 360 -8 13 -9 13
-14 0 -3 -8 -6 -28 -8 -45 -3 -28 -10 -20 -90 96 -245 355 -535 680 -751 842
-201 151 -399 215 -534 173z m1191 -2098 c-11 -52 -78 -246 -113 -328 -30 -70
-120 -225 -126 -218 -2 2 -19 43 -39 92 l-36 89 128 161 c71 89 141 178 156
199 16 20 30 37 33 37 3 0 1 -15 -3 -32z m-250 -983 c204 -611 336 -1002 431
-1275 24 -69 86 -249 139 -400 52 -151 165 -475 251 -719 85 -244 154 -445
152 -447 -3 -3 -49 122 -314 861 -36 99 -72 194 -80 210 -25 49 -793 2357
-798 2395 -2 19 -2 31 1 25 2 -5 100 -298 218 -650z m576 -1000 c0 -5 -5 -3
-10 5 -5 8 -10 20 -10 25 0 6 5 3 10 -5 5 -8 10 -19 10 -25z m160 -380 c83
-198 168 -400 189 -450 38 -89 95 -238 651 -1695 266 -698 475 -1269 467
-1277 -2 -1 -95 234 -206 525 -324 841 -525 1361 -1028 2657 -256 658 -238
612 -230 605 3 -3 74 -168 157 -365z m274 -1555 c5 -20 3 -19 -8 5 -7 17 -16
41 -20 55 -5 20 -3 19 8 -5 7 -16 16 -41 20 -55z m46 -125 c0 -5 -5 -3 -10 5
-5 8 -10 20 -10 25 0 6 5 3 10 -5 5 -8 10 -19 10 -25z"/>
</g>
</svg>
