<?xml version="1.0" standalone="no"?>
<!DOCTYPE svg PUBLIC "-//W3C//DTD SVG 20010904//EN"
 "http://www.w3.org/TR/2001/REC-SVG-20010904/DTD/svg10.dtd">
<svg version="1.0" xmlns="http://www.w3.org/2000/svg"
 width="896.000000pt" height="1280.000000pt" viewBox="0 0 896.000000 1280.000000"
 preserveAspectRatio="xMidYMid meet">
<metadata>
Created by potrace 1.15, written by Peter Selinger 2001-2017
</metadata>
<g transform="translate(0.000000,1280.000000) scale(0.100000,-0.100000)"
fill="#000000" stroke="none">
<path d="M85 12791 c-49 -13 -74 -30 -81 -56 -14 -55 10 -77 196 -179 334
-184 540 -375 634 -589 13 -29 87 -270 164 -537 249 -856 564 -1890 570 -1871
4 12 -198 830 -323 1307 -225 864 -285 1078 -325 1161 -109 232 -297 414 -607
589 -153 88 -154 94 -5 74 287 -38 832 -234 1721 -620 163 -70 356 -155 430
-189 74 -33 136 -59 138 -57 3 3 -174 97 -447 238 -621 319 -1299 603 -1685
703 -106 28 -318 43 -380 26z"/>
<path d="M1810 12011 c0 -5 80 -66 178 -137 722 -521 1391 -1072 1827 -1509
310 -310 439 -471 610 -757 140 -236 245 -390 520 -768 393 -540 532 -756 674
-1052 122 -253 193 -445 256 -698 38 -151 85 -387 85 -425 0 -14 5 -25 11 -25
8 0 10 31 5 113 -32 502 -174 979 -428 1427 -123 217 -257 413 -550 801 -298
396 -367 492 -478 674 -41 66 -97 152 -124 190 -332 474 -1156 1189 -2206
1916 -290 202 -380 261 -380 250z"/>
<path d="M3135 9926 l-28 -23 185 -269 c1076 -1566 2024 -3078 2392 -3812 210
-419 463 -1025 795 -1907 83 -220 156 -410 161 -422 6 -16 6 -23 -1 -23 -60 0
-333 -25 -441 -41 -295 -42 -472 -110 -513 -195 -22 -48 -12 -85 35 -128 52
-47 95 -68 215 -105 194 -59 423 -93 754 -111 101 -5 185 -11 186 -12 1 -2 25
-59 53 -128 86 -215 172 -396 225 -477 45 -67 60 -82 111 -108 150 -76 216
-17 202 180 -10 138 -32 226 -97 391 -32 83 -59 153 -59 156 0 4 35 9 78 13
113 10 293 42 401 70 169 45 273 111 287 181 l6 31 -58 6 c-53 5 -62 3 -84
-17 -38 -36 -98 -63 -213 -95 -107 -30 -321 -68 -415 -73 l-54 -3 -89 200
c-50 110 -93 206 -96 213 -16 36 486 -11 677 -64 90 -25 97 -26 80 -16 -62 39
-413 101 -662 118 -59 4 -112 12 -116 18 -5 6 -60 121 -122 256 -157 340 -443
945 -532 1125 -65 131 -1548 2903 -1585 2963 -13 21 -15 21 -43 7 -17 -9 -30
-17 -30 -19 0 -2 340 -638 756 -1412 416 -775 782 -1461 814 -1525 73 -145
391 -815 535 -1129 60 -129 115 -242 122 -251 7 -8 18 -31 24 -50 6 -19 52
-125 101 -237 50 -112 88 -205 87 -207 -2 -1 -63 -6 -135 -10 l-131 -7 -77
203 c-43 111 -86 218 -97 238 -10 20 -19 43 -19 53 0 9 -4 27 -10 40 -5 13
-78 203 -161 423 -447 1185 -686 1731 -1016 2323 -334 601 -930 1553 -1616
2582 -185 277 -674 998 -727 1072 l-27 36 -28 -22z m3612 -6716 c46 -118 83
-219 83 -224 0 -13 -367 0 -520 18 -340 41 -570 118 -570 190 0 81 302 177
675 216 55 5 116 12 135 14 19 2 53 3 75 2 l40 -1 82 -215z m522 -420 c82
-197 101 -259 117 -383 16 -127 13 -184 -12 -194 -9 -3 -33 -1 -54 6 -79 23
-141 126 -290 476 l-77 180 41 6 c22 3 84 7 137 7 l97 2 41 -100z"/>
<path d="M1651 9506 c2 -2 88 -36 191 -75 521 -197 828 -336 943 -427 l59 -48
-34 -14 c-49 -21 -346 -27 -585 -13 -104 6 -246 13 -315 16 l-125 4 140 -29
c267 -55 439 -74 680 -74 210 -1 222 0 262 22 46 24 63 47 63 84 0 139 -454
356 -1065 508 -192 48 -223 55 -214 46z"/>
<path d="M1860 8833 c0 -39 47 -272 80 -399 120 -463 309 -873 477 -1036 43
-42 73 -57 283 -141 129 -52 286 -117 348 -145 180 -82 325 -173 305 -193 -21
-21 -210 -31 -493 -26 -268 4 -290 4 -240 -9 67 -18 62 -17 240 -42 363 -53
555 -36 591 51 10 23 9 35 -4 62 -58 121 -451 294 -853 376 -80 16 -114 28
-128 43 -51 58 -136 260 -344 816 -122 325 -245 636 -258 649 -2 2 -4 0 -4 -6z"/>
<path d="M6440 7790 c-17 -17 -20 -33 -20 -112 0 -231 -130 -546 -437 -1063
-50 -84 -51 -87 -17 -50 126 139 313 419 415 622 l66 132 6 -142 c24 -534 17
-992 -17 -1157 -8 -36 -13 -66 -11 -68 5 -6 46 110 60 173 61 262 89 813 66
1300 -14 287 -22 363 -42 376 -23 14 -48 10 -69 -11z"/>
<path d="M2701 6828 c26 -49 202 -312 271 -405 302 -405 647 -734 984 -938
275 -167 664 -328 1084 -450 258 -74 673 -166 687 -151 4 3 0 6 -9 6 -20 0
-448 139 -643 210 -556 201 -979 405 -1256 605 -316 229 -671 584 -1023 1023
-54 67 -100 122 -102 122 -3 0 1 -10 7 -22z"/>
<path d="M6753 6791 c-17 -16 -21 -36 -26 -132 -8 -159 -43 -277 -153 -520
-59 -131 -151 -304 -261 -489 -88 -148 -67 -133 67 45 151 201 255 370 337
549 l31 69 8 -49 c4 -27 8 -294 8 -594 1 -469 -1 -556 -16 -625 -9 -44 -19
-89 -23 -100 -4 -14 -2 -12 9 5 38 61 83 269 108 505 16 150 17 1109 1 1233
-15 112 -44 146 -90 103z"/>
<path d="M7186 5595 c-8 -8 -18 -37 -21 -63 -20 -158 -25 -176 -74 -275 -28
-56 -89 -162 -136 -236 -47 -73 -85 -136 -85 -139 0 -13 115 107 183 190 39
48 72 86 74 84 6 -5 -36 -564 -52 -706 -8 -69 -19 -141 -24 -160 -9 -32 -9
-33 4 -16 62 82 139 443 175 826 11 113 26 257 35 320 14 112 12 152 -8 178
-13 17 -52 15 -71 -3z"/>
<path d="M4892 4808 c-30 -30 -13 -57 81 -131 194 -155 486 -357 694 -480 109
-64 285 -157 299 -157 4 0 -40 32 -97 72 -167 114 -609 448 -594 448 5 0 51
-13 104 -29 204 -63 592 -151 726 -165 52 -6 60 -8 -445 155 -376 122 -560
195 -661 263 -56 37 -87 44 -107 24z"/>
<path d="M5214 4246 c-9 -14 -14 -32 -11 -40 13 -35 371 -303 614 -460 118
-76 331 -198 418 -239 75 -36 71 -33 -96 86 -202 143 -541 399 -535 405 2 1
64 -15 137 -37 211 -61 673 -162 737 -161 9 1 -62 26 -158 56 -601 189 -842
277 -970 354 -108 65 -115 67 -136 36z"/>
<path d="M7683 2730 c106 -147 432 -637 537 -805 317 -506 533 -939 606 -1212
35 -133 38 -269 6 -330 -29 -55 -61 -79 -141 -103 -426 -132 -1909 -199 -2854
-130 -430 32 -717 89 -784 156 -20 20 -23 33 -23 97 0 41 7 112 16 158 67 355
416 1056 957 1924 134 215 132 211 120 200 -21 -19 -219 -303 -363 -520 -578
-873 -877 -1531 -832 -1830 10 -65 14 -73 56 -112 104 -94 389 -156 926 -200
264 -22 1343 -25 1660 -5 615 39 1047 102 1217 177 189 84 225 305 103 648
-145 410 -551 1064 -1092 1759 -128 164 -190 234 -115 128z"/>
<path d="M6690 1580 c-140 -4 -291 -13 -335 -20 -192 -28 -401 -82 -485 -125
-86 -43 -81 -23 -78 -367 l3 -305 27 -41 c15 -22 49 -54 75 -69 l48 -28 878
-3 c573 -1 891 1 916 8 58 15 116 62 142 117 24 47 24 53 24 335 l0 286 -25
28 c-48 52 -224 119 -430 165 -113 25 -352 31 -760 19z"/>
</g>
</svg>
